# xmcd CD database file
#
# Track frame offsets:
#	150
#	16113
#	35062
#	50907
#	65303
#	83856
#	100083
#	116296
#	129893
#	144709
#	164201
#	177571
#	197978
#
# Disc length: 2807 seconds
#
# Revision: 0
# Processed by: cddbd v1.5.1PL0 Copyright (c) Steve Scherf et al.
# Submitted via: CDex 1.50
#
DISCID=ba0af50d
DTITLE=Bob Gaede - Poseidon's Blues
DYEAR=1999
DGENRE=Blues
TTITLE0=Steppin' Out
TTITLE1=Poseidon's Blues
TTITLE2=Stupid Tourist Blues
TTITLE3=My Body's Failin' Me
TTITLE4=Jerry's Blues
TTITLE5=Stephanie
TTITLE6=Let It Go
TTITLE7=My Baby's Got the Blues
TTITLE8=Excuses
TTITLE9=Burned Out Blues
TTITLE10=Life's a Bitch
TTITLE11=Native Son
TTITLE12=Throw-Away Planet
EXTD=YEAR: 1999
EXTT0=
EXTT1=
EXTT2=
EXTT3=
EXTT4=
EXTT5=
EXTT6=
EXTT7=
EXTT8=
EXTT9=
EXTT10=
EXTT11=
EXTT12=
PLAYORDER=
